HIERARCHY
ROOT Hips
{
	OFFSET 0.00000 0.00000 0.00000
	CHANNELS 6 Xposition Yposition Zposition Yrotation Zrotation Xrotation 
	JOINT Lumbar
	{
		OFFSET 0 0 0
		CHANNELS 3 Zrotation Xrotation Yrotation
		JOINT Neck
		{
			OFFSET 0.00 0.2701 0.00
			CHANNELS 3 Zrotation Xrotation Yrotation
			End Site
			{
				OFFSET 0.00 0.1379 0.00
			}
		}
		JOINT RightShoulder
		{
			OFFSET 0.0119 0.2289 0.1181
			CHANNELS 3 Zrotation Xrotation Yrotation
			JOINT RightElbow
			{
				OFFSET 0.00 -0.1475 0.00
				CHANNELS 2 Zrotation Yrotation
				JOINT RightWrist
				{
					OFFSET 0.00 -0.1605 0.00
					CHANNELS 2 Zrotation Xrotation
					End Site
					{
						OFFSET 0.0040 -0.1068 0.0006
					}
				}
			}
		}
		JOINT LeftShoulder
		{
			OFFSET 0.0119 0.2289 -0.1181
			CHANNELS 3 Zrotation Xrotation Yrotation
			JOINT LeftElbow
			{
				OFFSET 0.00 -0.1475 0.00
				CHANNELS 2 Zrotation Yrotation
				JOINT LeftWrist
				{
					OFFSET 0.00 -0.1605 0.00
					CHANNELS 2 Zrotation Xrotation
					End Site
					{
						OFFSET 0.0040 -0.1068 -0.0006
					}
				}
			}
		}
	}
	JOINT RightHip
	{
		OFFSET 0.0316 -0.0424 0.0458
		CHANNELS 3 Zrotation Xrotation Yrotation
		JOINT RightKnee
		{
			OFFSET 0.00 -0.2438 0.00
			CHANNELS 1 Zrotation
			JOINT RightAnkle
			{
				OFFSET 0.00 -0.2449 0.00
				CHANNELS 3 Zrotation Xrotation Yrotation
				End Site
				{
					OFFSET 0.1237 -0.0542 0.0051
				}
			}
		}
	}
	JOINT LeftHip
	{
		OFFSET 0.0316 -0.0424 -0.0458
		CHANNELS 3 Zrotation Xrotation Yrotation
		JOINT LeftKnee
		{
			OFFSET 0.00 -0.2438 0.00
			CHANNELS 1 Zrotation
			JOINT LeftAnkle
			{
				OFFSET 0.00 -0.2449 0.00
				CHANNELS 3 Zrotation Xrotation Yrotation
				End Site
				{
					OFFSET 0.1237 -0.0542 -0.0051
				}
			}
		}
	}
}
MOTION
Frames: 22
Frame Time: 0.02
-0.94177 0.5211 0.2038 540.00712 0 -4.00601 -53.38106 2.50239 2.93471 -58.9791 -4.79862 -5.75511 46.45758 -22.8381 25.17371 51.64258 127.06495 -19.76181 -12.64627 57.90324 33.58459 -4.78265 52.52269 -95.58023 -33.97879 5.24395 31.24317 3.17288 -5.94447 -47.83332 3.47282 -5.76893 -11.6184 34.17535 19.23156 14.92585 -48.97184 -0.16564 2.88198 2.35208
-0.93643 0.51461 0.20784 539.25837 0 -3.8479 -54.00959 2.11015 2.80498 -58.94703 -4.69626 -5.88881 46.26234 -22.75108 25.73563 52.20283 126.44968 -20.3645 -12.36409 58.79859 34.44605 -4.53585 53.20712 -95.82852 -34.13126 5.27038 33.05656 2.92818 -5.35974 -50.04147 4.04292 -5.96552 -11.38801 35.29266 19.65859 15.58004 -50.8811 0.80877 2.89314 2.03335
-0.93121 0.50776 0.21179 538.56141 0 -3.62943 -54.47435 1.64895 2.57361 -59.19767 -4.68173 -6.04455 46.51511 -22.47437 26.54626 52.41192 125.76666 -21.3791 -11.9723 60.22244 35.38996 -4.40921 53.81604 -96.29436 -34.3125 5.32262 34.90375 2.66656 -4.76663 -52.29384 4.62497 -6.18283 -11.18406 36.63533 20.0027 16.3921 -53.10845 1.68061 2.9385 2.21603
-0.92596 0.50105 0.21576 537.84547 0 -3.43778 -54.98816 1.22385 2.38912 -59.32566 -4.63625 -6.20695 46.57408 -22.25726 27.22704 52.75899 125.11574 -22.2292 -11.63052 61.39463 36.30791 -4.21826 54.4724 -96.63616 -34.48257 5.35998 36.73552 2.41508 -4.17903 -54.52513 5.1928 -6.38458 -10.96502 37.88087 20.37894 17.11037 -55.19354 2.59051 2.97587 2.16838
-0.92059 0.49442 0.21983 537.11 0 -3.24923 -55.61311 0.77606 2.19086 -59.42757 -4.56303 -6.29952 46.58804 -22.14484 27.9792 53.1989 124.4609 -22.98682 -11.28893 62.61786 37.18807 -4.07438 55.08019 -97.08471 -34.64229 5.41106 38.57215 2.15531 -3.58092 -56.76766 5.79679 -6.61104 -10.75891 39.10639 20.7805 17.93703 -57.28002 3.54523 2.97777 2.08882
-0.9155 0.48755 0.22366 536.4292 0 -3.04043 -55.96337 0.36139 1.99745 -59.65281 -4.5669 -6.54101 46.80695 -21.77276 28.64019 53.35857 123.80053 -24.02987 -10.92177 63.86208 38.16077 -3.861 55.76628 -97.36317 -34.82974 5.43968 40.40394 1.90813 -3.0053 -58.993 6.32858 -6.79154 -10.5327 40.42577 21.10848 18.56966 -59.43261 4.37922 3.06334 2.21045
-0.91113 0.48007 0.22685 535.86786 0 -2.78137 -55.62846 0.03977 1.88333 -60.13371 -4.7389 -7.20569 47.44265 -20.72305 29.00602 52.86302 123.10527 -25.80546 -10.49578 65.00175 39.38777 -3.39831 56.71449 -97.11091 -35.10615 5.39825 42.22516 1.69835 -2.47779 -61.17808 6.65855 -6.83862 -10.23791 41.95503 21.25856 18.62564 -61.71731 4.89963 3.36744 2.77228
-0.90704 0.47237 0.22978 535.36335 0 -2.50563 -55.01605 -0.24307 1.7676 -60.73191 -4.99169 -8.01515 48.27801 -19.42061 29.26842 52.09018 122.41362 -27.84487 -10.05055 66.15037 40.69971 -2.86614 57.7376 -96.68239 -35.40659 5.33372 44.03722 1.5019 -1.97653 -63.33949 6.91525 -6.83907 -9.92316 43.56945 21.33618 18.47876 -64.05075 5.30113 3.75533 3.52367
-0.90284 0.46478 0.2328 534.84459 0 -2.24312 -54.50925 -0.53352 1.63358 -61.2867 -5.2162 -8.74868 49.04588 -18.23982 29.56687 51.42504 121.74229 -29.73522 -9.62333 67.31495 41.95972 -2.38204 58.70884 -96.33805 -35.68367 5.28066 45.84646 1.2999 -1.47391 -65.50001 7.20562 -6.86209 -9.62173 45.14101 21.4437 18.4245 -66.34327 5.76004 4.10861 4.19007
-0.8986 0.45712 0.23593 534.27759 0 -1.95416 -54.08488 -0.86886 1.59451 -61.80954 -5.39319 -9.5309 49.72497 -17.02467 29.92019 50.83122 120.97264 -31.76691 -9.15221 68.41066 43.28121 -1.82998 59.75606 -95.97938 -36.01352 5.22384 47.68874 1.09479 -0.92602 -67.71423 7.49577 -6.88037 -9.30315 46.73873 21.56175 18.37575 -68.72822 6.20388 4.45026 4.86975
-0.89449 0.44957 0.23877 533.8254 0 -1.71777 -53.42311 -1.10037 1.33548 -62.42314 -5.70624 -10.23935 50.63842 -15.82222 30.13148 50.01972 120.41364 -33.55667 -8.77063 69.64861 44.49098 -1.40475 60.6597 -95.61181 -36.23967 5.16971 49.45664 0.90004 -0.47917 -69.80679 7.76763 -6.89673 -9.01539 48.29836 21.641 18.26331 -70.92561 6.64892 4.83324 5.5586
-0.89059 0.44231 0.24093 533.66332 0 -1.62493 -52.19039 -1.05599 0.67339 -63.25648 -6.20698 -10.76622 52.07856 -14.72957 29.97407 48.74684 120.39838 -34.6507 -8.63066 71.24141 45.39406 -1.31705 61.18389 -95.21104 -36.16602 5.12264 51.0456 0.72596 -0.30193 -71.59885 8.01703 -6.92313 -8.81621 49.73759 21.63728 18.03981 -72.61151 7.15403 5.32998 6.24105
-0.8868 0.43521 0.24279 533.617 0 -1.5868 -50.72586 -0.90794 -0.24428 -64.17572 -6.86997 -11.20466 53.75705 -13.65721 29.67626 47.25505 120.60085 -35.48164 -8.58391 72.97931 46.1772 -1.3643 61.55509 -94.81621 -35.98854 5.08008 52.5549 0.56259 -0.22615 -73.26314 8.24847 -6.94837 -8.64897 51.13289 21.59617 17.7557 -74.10157 7.6595 5.86135 6.92086
-0.88299 0.4281 0.24474 533.52596 0 -1.52781 -49.3576 -0.80605 -1.18227 -65.05616 -7.57216 -11.64363 55.3733 -12.56784 29.4428 45.81534 120.72998 -36.40878 -8.50187 74.6737 46.99984 -1.36857 61.97314 -94.45117 -35.86328 5.03926 54.08516 0.39772 -0.10583 -74.96673 8.48164 -6.97151 -8.46778 52.54401 21.56846 17.4883 -75.66802 8.14749 6.3637 7.59007
-0.87908 0.42069 0.24684 533.40362 0 -1.45182 -48.01867 -0.70658 -1.55764 -65.94149 -7.81211 -12.24825 56.80938 -11.50156 29.20408 44.55676 120.75669 -37.45043 -8.38939 76.28112 47.88844 -1.29298 62.48822 -93.94193 -35.71719 4.98159 55.68121 0.21993 0.02054 -76.75029 8.74003 -7.00422 -8.2831 53.97758 21.55359 17.25893 -77.29094 8.7055 6.92573 8.31676
-0.8754 0.41397 0.24858 533.37326 0 -1.42378 -46.56622 -0.57832 -3.14871 -66.83341 -9.03765 -12.49355 58.66577 -10.39638 28.94369 42.884 121.04135 -38.17959 -8.36252 78.09506 48.61057 -1.41671 62.76551 -93.73799 -35.59003 4.96049 57.11925 0.07035 0.11012 -78.33533 8.94183 -7.01722 -8.11405 55.35053 21.5037 16.93949 -78.74739 9.1179 7.36977 8.91963
-0.8722 0.40905 0.24942 533.56772 0 -1.52064 -44.86728 -0.39265 -8.1763 -67.7387 -13.06872 -11.69301 61.69858 -9.17178 28.66269 40.02483 122.04626 -38.17822 -8.5513 80.51904 48.89634 -2.05911 62.40847 -94.36518 -35.53471 5.03841 58.1588 0.0053 0.12653 -79.41942 8.99844 -6.97707 -7.9759 56.58551 21.36994 16.37956 -79.80544 9.14092 7.48577 9.18772
-0.86923 0.40485 0.24992 533.85052 0 -1.66287 -43.0617 -0.18232 -14.38976 -68.64361 -18.061 -10.54692 65.13068 -7.91037 28.36407 36.77596 123.29216 -37.85866 -8.82273 83.13146 49.01878 -2.89836 61.81943 -95.30184 -35.50214 5.15329 59.03862 -0.03351 0.10879 -80.30516 8.99794 -6.91715 -7.85316 57.757 21.20211 15.73362 -80.69986 9.01562 7.48029 9.32916
-0.86621 0.40038 0.25056 534.09327 0 -1.78052 -41.29952 0.01429 -19.96994 -69.538 -22.53371 -9.60801 68.33102 -6.67116 28.07115 33.76984 124.38707 -37.63719 -9.05512 85.60845 49.22027 -3.64597 61.34673 -96.10502 -35.46388 5.2519 59.97965 -0.09045 0.10456 -81.27149 9.01941 -6.86587 -7.72655 58.94496 21.04752 15.13207 -81.66025 8.95048 7.52585 9.52321
-0.86297 0.39569 0.25123 534.34008 0 -1.91667 -39.55007 0.22489 -25.96655 -70.4823 -27.36794 -8.45564 71.75451 -5.40758 27.78403 30.47802 125.66313 -37.59781 -9.2971 88.30174 49.39979 -4.4041 60.82446 -96.87961 -35.40577 5.3483 60.96621 -0.12081 0.10559 -82.27412 9.05654 -6.81606 -7.58842 60.18397 20.90012 14.50474 -82.6496 8.91589 7.59005 9.73783
-0.86025 0.39161 0.25176 534.59741 0 -2.02447 -37.75229 0.41118 -31.36261 -71.31929 -31.66719 -7.6654 74.80197 -4.18804 27.48118 27.69253 126.61817 -37.1136 -9.53739 90.58611 49.58467 -5.1895 60.3501 -97.78525 -35.39149 5.45817 61.8207 -0.20045 0.08843 -83.15515 9.04836 -6.75843 -7.47676 61.3018 20.73131 13.91294 -83.54193 8.78242 7.58637 9.87999
-0.8589 0.38906 0.25203 534.86585 0 -2.04191 -35.84505 0.52097 -34.90659 -71.87756 -34.32183 -7.97314 76.73726 -3.08045 27.15162 26.39506 126.61029 -35.4224 -9.75358 91.70542 49.85116 -5.96628 60.08395 -98.99446 -35.5304 5.59492 62.35263 -0.42258 0.03368 -83.75383 8.92383 -6.68492 -7.44119 62.10356 20.50218 13.42843 -84.21013 8.41193 7.42245 9.84888
